<?xml version="1.0" encoding="utf-8"?>
<!-- Generator: Adobe Illustrator 22.1.0, SVG Export Plug-In . SVG Version: 6.00 Build 0)  -->
<svg version="1.1" xmlns="http://www.w3.org/2000/svg" xmlns:xlink="http://www.w3.org/1999/xlink" x="0px" y="0px"
	 viewBox="0 0 1280 1024" style="enable-background:new 0 0 1280 1024;" xml:space="preserve">
<style type="text/css">
	.st0{fill:#0000FF;}
</style>
<g id="rain">
	<g>
		<ellipse class="st0" cx="546.5" cy="454" rx="15" ry="19.5"/>
		<path d="M546.5,435c8,0,14.5,8.5,14.5,19s-6.5,19-14.5,19s-14.5-8.5-14.5-19S538.5,435,546.5,435 M546.5,434
			c-8.6,0-15.5,9-15.5,20c0,11,6.9,20,15.5,20s15.5-9,15.5-20C562,443,555.1,434,546.5,434L546.5,434z"/>
	</g>
	<g>
		<ellipse class="st0" cx="373" cy="498" rx="10.5" ry="26.5"/>
		<path d="M373,472c4.8,0,10,10.4,10,26s-5.2,26-10,26s-10-10.4-10-26S368.2,472,373,472 M373,471c-6.1,0-11,12.1-11,27
			s4.9,27,11,27s11-12.1,11-27S379.1,471,373,471L373,471z"/>
	</g>
	<g>
		<ellipse class="st0" cx="436.5" cy="457.5" rx="10" ry="23"/>
		<path d="M436.5,435c5.1,0,9.5,10.3,9.5,22.5s-4.4,22.5-9.5,22.5s-9.5-10.3-9.5-22.5S431.4,435,436.5,435 M436.5,434
			c-5.8,0-10.5,10.5-10.5,23.5s4.7,23.5,10.5,23.5s10.5-10.5,10.5-23.5S442.3,434,436.5,434L436.5,434z"/>
	</g>
	<g>
		<ellipse class="st0" cx="531" cy="525.5" rx="6.5" ry="38"/>
		<path d="M531,488c0.6,0,2.4,1.9,4,10.5c1.3,7.2,2,16.8,2,27c0,10.2-0.7,19.8-2,27c-1.6,8.6-3.4,10.5-4,10.5s-2.4-1.9-4-10.5
			c-1.3-7.2-2-16.8-2-27c0-10.2,0.7-19.8,2-27C528.6,489.9,530.4,488,531,488 M531,487c-3.9,0-7,17.2-7,38.5c0,21.3,3.1,38.5,7,38.5
			s7-17.2,7-38.5C538,504.2,534.9,487,531,487L531,487z"/>
	</g>
	<g>
		<ellipse class="st0" cx="433" cy="529" rx="13.5" ry="34.5"/>
		<path d="M433,495c7,0,13,15.6,13,34c0,18.4-6,34-13,34s-13-15.6-13-34C420,510.6,426,495,433,495 M433,494c-7.7,0-14,15.7-14,35
			s6.3,35,14,35s14-15.7,14-35S440.7,494,433,494L433,494z"/>
	</g>
	<g>
		<ellipse class="st0" cx="322.5" cy="529" rx="16" ry="34.5"/>
		<path d="M322.5,495c8.4,0,15.5,15.6,15.5,34c0,18.4-7.1,34-15.5,34S307,547.4,307,529C307,510.6,314.1,495,322.5,495 M322.5,494
			c-9.1,0-16.5,15.7-16.5,35s7.4,35,16.5,35s16.5-15.7,16.5-35S331.6,494,322.5,494L322.5,494z"/>
	</g>
	<g>
		<ellipse class="st0" cx="484" cy="428" rx="9.5" ry="26.5"/>
		<path d="M484,402c4.3,0,9,10.4,9,26s-4.7,26-9,26s-9-10.4-9-26S479.7,402,484,402 M484,401c-5.5,0-10,12.1-10,27s4.5,27,10,27
			s10-12.1,10-27S489.5,401,484,401L484,401z"/>
	</g>
	<g>
		<circle class="st0" cx="378" cy="428" r="26.5"/>
		<path d="M378,402c14.3,0,26,11.7,26,26s-11.7,26-26,26s-26-11.7-26-26S363.7,402,378,402 M378,401c-14.9,0-27,12.1-27,27
			s12.1,27,27,27s27-12.1,27-27S392.9,401,378,401L378,401z"/>
	</g>
</g>
<g id="cloud">
	<g>
		<g>
			<path class="st0" d="M538,410.5c-6.9,0-12.8-15.1-13.4-34.4l0-0.6l-0.6,0.1c-4.2,0.6-8.4,0.9-12.5,0.9
				c-17.4,0-34.2-5.3-48.5-15.2l-0.4-0.2l-0.3,0.3c-3,3.1-6.2,6.1-9.7,8.7l-0.2,0.2l0,0.8c0,16.3-5.8,29.5-13,29.5
				c-4.8,0-9.4-6.4-11.6-16.3l-0.1-0.5l-0.5,0.2c-9.1,3.1-18.6,4.7-28.2,4.7c-17.2,0-33.8-5-48.1-14.4l-0.7-0.4l-0.1,0.8
				c-1.3,11.6-6,20-11.1,20c-4.9,0-9.2-7.1-10.8-17.7l-0.1-0.4l-0.5,0c-1.8,0.1-3.2,0.1-4.6,0.1c-44.9,0-81.5-36.6-81.5-81.5
				c0-21.3,8.2-41.5,23.1-56.8c14.8-15.3,34.7-24,56-24.6l0.2,0l0.1-0.2c12.4-15,33.7-25,57-26.6l0.4,0l0.1-0.4
				c2.6-17.6,11.5-33.7,25-45.5c13.6-11.8,31.1-18.4,49.2-18.4c28.8,0,54.7,16.1,67.4,42l0.2,0.4l0.4-0.1
				c12.4-3.5,25.7-5.3,39.5-5.3c49.4,0,89.5,23.1,89.5,51.5c0,21.5-23.6,40.9-58.7,48.4l-0.6,0.1l0.2,0.6c4,10,6,20.6,6,31.5
				c0,31.4-17.2,60.1-44.9,74.9l-0.3,0.1l0,0.3c0.1,1.9,0.1,3.7,0.1,5.6C551.5,393.5,545.4,410.5,538,410.5z"/>
			<path d="M452.5,123c14.2,0,28,4,39.9,11.6c11.6,7.4,20.9,17.8,27,30.2l0.4,0.8l0.8-0.2c12.3-3.5,25.6-5.3,39.4-5.3
				c49.1,0,89,22.9,89,51c0,21.3-23.4,40.5-58.3,47.9l-1.2,0.2l0.4,1.1c4,10,6,20.5,6,31.3c0,31.2-17.1,59.7-44.6,74.5l-0.6,0.3
				l0,0.6c0.1,1.9,0.1,3.7,0.1,5.6c0,22.4-6.7,37.5-13,37.5c-6.5,0-12.3-15.2-12.9-34l0-1.1l-1.1,0.2c-4.1,0.6-8.3,0.9-12.4,0.9
				c-17.3,0-34-5.2-48.2-15.1l-0.7-0.5L462,361c-3,3.1-6.2,6-9.6,8.7L452,370l0,0.5l0,0.2l0,0.3c0,15.7-5.7,29-12.5,29
				c-4.6,0-9-6.2-11.1-15.9l-0.2-1.1l-1.1,0.4c-9,3.1-18.5,4.6-28.1,4.6c-17.1,0-33.6-4.9-47.8-14.3l-1.4-0.9l-0.2,1.6
				c-1.3,11.4-5.7,19.6-10.7,19.6c-4.5,0-8.8-7.1-10.3-17.3l-0.1-0.9l-0.9,0.1c-1.8,0.1-3.2,0.1-4.6,0.1c-44.7,0-81-36.3-81-81
				c0-21.2,8.1-41.3,22.9-56.5c14.8-15.2,34.5-23.9,55.6-24.5l0.5,0l0.3-0.3c12.3-14.9,33.5-24.8,56.6-26.4l0.8-0.1l0.1-0.8
				c2.6-17.5,11.4-33.5,24.8-45.2C417.2,129.5,434.5,123,452.5,123 M452.5,122c-37.9,0-69.2,27.9-74.7,64.3
				c-24.2,1.7-45.1,12-57.3,26.8c-44.1,1.3-79.5,37.5-79.5,81.9c0,45.3,36.7,82,82,82c1.6,0,3.1-0.1,4.7-0.1
				c1.6,10.6,6.1,18.1,11.3,18.1c5.6,0,10.3-8.7,11.6-20.5c13.9,9.1,30.5,14.5,48.4,14.5c9.9,0,19.5-1.7,28.4-4.7
				c2.2,9.9,6.8,16.7,12.1,16.7c7.5,0,13.5-13.4,13.5-30c0-0.2,0-0.3,0-0.5c3.5-2.7,6.7-5.6,9.7-8.8c13.8,9.6,30.6,15.3,48.8,15.3
				c4.3,0,8.5-0.3,12.6-0.9c0.7,19.6,6.6,34.9,13.9,34.9c7.7,0,14-17.2,14-38.5c0-1.9-0.1-3.8-0.1-5.6
				c26.9-14.4,45.1-42.8,45.1-75.4c0-11.2-2.2-21.9-6.1-31.7c34.5-7.3,59.1-26.4,59.1-48.8c0-28.7-40.3-52-90-52
				c-14.2,0-27.7,1.9-39.7,5.3C508,139.3,482.3,122,452.5,122L452.5,122z"/>
		</g>
	</g>
</g>
</svg>
